<svg width="49" height="48" viewBox="0 0 49 48" fill="none" xmlns="http://www.w3.org/2000/svg">
<g filter="url(#filter0_d_92_1586)">
<rect x="4.5" width="40" height="40" rx="20" fill="black"/>
<path d="M33.3418 25.1449C33.0091 25.9135 32.6153 26.6211 32.159 27.2715C31.5371 28.1583 31.0278 28.7721 30.6354 29.113C30.027 29.6724 29.3752 29.959 28.6772 29.9753C28.1761 29.9753 27.5718 29.8327 26.8683 29.5434C26.1626 29.2555 25.514 29.113 24.921 29.113C24.2991 29.113 23.632 29.2555 22.9185 29.5434C22.204 29.8327 21.6283 29.9834 21.1882 29.9984C20.5188 30.0269 19.8517 29.7322 19.1857 29.113C18.7607 28.7422 18.229 28.1067 17.5921 27.2063C16.9088 26.2449 16.347 25.13 15.9069 23.8589C15.4355 22.486 15.1992 21.1565 15.1992 19.8694C15.1992 18.3951 15.5178 17.1235 16.1559 16.0578C16.6574 15.2019 17.3246 14.5267 18.1596 14.0311C18.9946 13.5354 19.8969 13.2828 20.8685 13.2666C21.4002 13.2666 22.0974 13.4311 22.9637 13.7543C23.8277 14.0786 24.3824 14.243 24.6256 14.243C24.8075 14.243 25.4237 14.0507 26.4684 13.6674C27.4564 13.3119 28.2902 13.1647 28.9732 13.2226C30.8241 13.372 32.2147 14.1017 33.1395 15.4162C31.4841 16.4192 30.6653 17.824 30.6816 19.6262C30.6965 21.03 31.2057 22.1981 32.2066 23.1256C32.6601 23.5561 33.1667 23.8888 33.7302 24.1251C33.608 24.4795 33.479 24.819 33.3418 25.1449ZM29.0968 8.44037C29.0968 9.54062 28.6948 10.5679 27.8936 11.5188C26.9267 12.6492 25.7572 13.3024 24.489 13.1993C24.4729 13.0673 24.4635 12.9284 24.4635 12.7824C24.4635 11.7261 24.9233 10.5958 25.7399 9.67152C26.1475 9.20356 26.666 8.81445 27.2948 8.50406C27.9221 8.19829 28.5156 8.0292 29.0737 8.00024C29.09 8.14733 29.0968 8.29443 29.0968 8.44036V8.44037Z" fill="white"/>
</g>
<defs>
<filter id="filter0_d_92_1586" x="0.5" y="0" width="48" height="48" filterUnits="userSpaceOnUse" color-interpolation-filters="sRGB">
<feFlood flood-opacity="0" result="BackgroundImageFix"/>
<feColorMatrix in="SourceAlpha" type="matrix" values="0 0 0 0 0 0 0 0 0 0 0 0 0 0 0 0 0 0 127 0" result="hardAlpha"/>
<feOffset dy="4"/>
<feGaussianBlur stdDeviation="2"/>
<feComposite in2="hardAlpha" operator="out"/>
<feColorMatrix type="matrix" values="0 0 0 0 0 0 0 0 0 0 0 0 0 0 0 0 0 0 0.08 0"/>
<feBlend mode="normal" in2="BackgroundImageFix" result="effect1_dropShadow_92_1586"/>
<feBlend mode="normal" in="SourceGraphic" in2="effect1_dropShadow_92_1586" result="shape"/>
</filter>
</defs>
</svg>
