<svg width="49" height="48" viewBox="0 0 49 48" fill="none" xmlns="http://www.w3.org/2000/svg">
<g filter="url(#filter0_d_92_1583)">
<rect x="4.5" width="40" height="40" rx="20" fill="#1877F2"/>
<g clip-path="url(#clip0_92_1583)">
<path d="M36.5 20C36.5 13.3726 31.1274 8 24.5 8C17.8726 8 12.5 13.3726 12.5 20C12.5 25.9895 16.8882 30.954 22.625 31.8542V23.4688H19.5781V20H22.625V17.3563C22.625 14.3488 24.4166 12.6875 27.1576 12.6875C28.4701 12.6875 29.8438 12.9219 29.8438 12.9219V15.875H28.3306C26.84 15.875 26.375 16.8001 26.375 17.75V20H29.7031L29.1711 23.4688H26.375V31.8542C32.1118 30.954 36.5 25.9895 36.5 20Z" fill="white"/>
</g>
</g>
<defs>
<filter id="filter0_d_92_1583" x="0.5" y="0" width="48" height="48" filterUnits="userSpaceOnUse" color-interpolation-filters="sRGB">
<feFlood flood-opacity="0" result="BackgroundImageFix"/>
<feColorMatrix in="SourceAlpha" type="matrix" values="0 0 0 0 0 0 0 0 0 0 0 0 0 0 0 0 0 0 127 0" result="hardAlpha"/>
<feOffset dy="4"/>
<feGaussianBlur stdDeviation="2"/>
<feComposite in2="hardAlpha" operator="out"/>
<feColorMatrix type="matrix" values="0 0 0 0 0 0 0 0 0 0 0 0 0 0 0 0 0 0 0.08 0"/>
<feBlend mode="normal" in2="BackgroundImageFix" result="effect1_dropShadow_92_1583"/>
<feBlend mode="normal" in="SourceGraphic" in2="effect1_dropShadow_92_1583" result="shape"/>
</filter>
<clipPath id="clip0_92_1583">
<rect width="24" height="24" fill="white" transform="translate(12.5 8)"/>
</clipPath>
</defs>
</svg>
