<svg width="24" height="24" viewBox="0 0 24 24" fill="none" xmlns="http://www.w3.org/2000/svg">
<path d="M20.8401 4.4961C20.3294 3.98511 19.7229 3.57975 19.0555 3.30319C18.388 3.02662 17.6726 2.88428 16.9501 2.88428C16.2276 2.88428 15.5122 3.02662 14.8448 3.30319C14.1773 3.57975 13.5709 3.98511 13.0601 4.4961L12.0001 5.5561L10.9401 4.4961C9.90843 3.46441 8.50915 2.88481 7.05012 2.88481C5.59109 2.88481 4.19181 3.46441 3.16012 4.4961C2.12843 5.5278 1.54883 6.92707 1.54883 8.3861C1.54883 9.84514 2.12843 11.2444 3.16012 12.2761L4.22012 13.3361L12.0001 21.1161L19.7801 13.3361L20.8401 12.2761C21.3511 11.7653 21.7565 11.1589 22.033 10.4915C22.3096 9.824 22.4519 9.10859 22.4519 8.3861C22.4519 7.66362 22.3096 6.94821 22.033 6.28075C21.7565 5.61329 21.3511 5.00686 20.8401 4.4961V4.4961Z" stroke="#5311BF" stroke-width="1.5" stroke-linecap="round" stroke-linejoin="round"/>
</svg>
