<svg width="49" height="48" viewBox="0 0 49 48" fill="none" xmlns="http://www.w3.org/2000/svg">
<g filter="url(#filter0_d_92_1577)">
<rect x="4.5" width="40" height="40" rx="20" fill="white"/>
<g clip-path="url(#clip0_92_1577)">
<path d="M36.2663 20.2765C36.2663 19.4608 36.2001 18.6406 36.059 17.8381H24.7402V22.4591H31.222C30.953 23.9495 30.0888 25.2679 28.8233 26.1056V29.104H32.6903C34.9611 27.014 36.2663 23.9274 36.2663 20.2765Z" fill="#4285F4"/>
<path d="M24.7391 32.0008C27.9756 32.0008 30.705 30.9382 32.6936 29.1039L28.8266 26.1055C27.7507 26.8375 26.3618 27.252 24.7435 27.252C21.6129 27.252 18.9585 25.1399 18.0061 22.3003H14.0156V25.3912C16.0527 29.4434 20.2019 32.0008 24.7391 32.0008Z" fill="#34A853"/>
<path d="M18.0028 22.3002C17.5001 20.8099 17.5001 19.196 18.0028 17.7057V14.6147H14.0167C12.3147 18.0055 12.3147 22.0004 14.0167 25.3912L18.0028 22.3002Z" fill="#FBBC04"/>
<path d="M24.7391 12.7497C26.4499 12.7232 28.1034 13.367 29.3425 14.5487L32.7685 11.1226C30.5991 9.0855 27.7198 7.96553 24.7391 8.00081C20.2019 8.00081 16.0527 10.5582 14.0156 14.6148L18.0017 17.7058C18.9497 14.8617 21.6085 12.7497 24.7391 12.7497Z" fill="#EA4335"/>
</g>
</g>
<defs>
<filter id="filter0_d_92_1577" x="0.5" y="0" width="48" height="48" filterUnits="userSpaceOnUse" color-interpolation-filters="sRGB">
<feFlood flood-opacity="0" result="BackgroundImageFix"/>
<feColorMatrix in="SourceAlpha" type="matrix" values="0 0 0 0 0 0 0 0 0 0 0 0 0 0 0 0 0 0 127 0" result="hardAlpha"/>
<feOffset dy="4"/>
<feGaussianBlur stdDeviation="2"/>
<feComposite in2="hardAlpha" operator="out"/>
<feColorMatrix type="matrix" values="0 0 0 0 0 0 0 0 0 0 0 0 0 0 0 0 0 0 0.08 0"/>
<feBlend mode="normal" in2="BackgroundImageFix" result="effect1_dropShadow_92_1577"/>
<feBlend mode="normal" in="SourceGraphic" in2="effect1_dropShadow_92_1577" result="shape"/>
</filter>
<clipPath id="clip0_92_1577">
<rect width="24" height="24" fill="white" transform="translate(12.5 8)"/>
</clipPath>
</defs>
</svg>
