<svg width="242" height="45" viewBox="0 0 242 45" fill="none" xmlns="http://www.w3.org/2000/svg">
<mask id="mask0_115_5913" style="mask-type:luminance" maskUnits="userSpaceOnUse" x="0" y="3" width="25" height="39">
<path d="M0 3.83545H24.0625V41.1642H0V3.83545Z" fill="white"/>
</mask>
<g mask="url(#mask0_115_5913)">
<path d="M9.51389 5.70592L22.3704 18.6226C22.6296 18.8818 22.8611 19.1642 23.0648 19.4698C23.2685 19.7754 23.4398 20.0994 23.5787 20.4374C23.7199 20.7777 23.8264 21.1272 23.8958 21.4883C23.9676 21.8494 24.0046 22.2129 24.0046 22.5809C24.0046 22.949 23.9676 23.3124 23.8958 23.6735C23.8264 24.0346 23.7199 24.3842 23.5787 24.7244C23.4398 25.0624 23.2685 25.3865 23.0648 25.692C22.8611 25.9976 22.6296 26.28 22.3704 26.5392L9.51389 39.4559C6.00232 42.9837 -0.002314 40.4837 6.68997e-07 35.493V9.66193C-0.002314 4.67814 6.00232 2.17814 9.51389 5.70592Z" fill="url(#paint0_linear_115_5913)"/>
</g>
<mask id="mask1_115_5913" style="mask-type:luminance" maskUnits="userSpaceOnUse" x="0" y="3" width="25" height="30">
<path d="M0 3.83545H24.0625V32.2753H0V3.83545Z" fill="white"/>
</mask>
<g mask="url(#mask1_115_5913)">
<path d="M9.51389 5.70591C6.02315 2.19897 0.0856521 4.65036 0.00231934 9.5786C0.00231934 9.5786 20.2338 28.8078 17.0162 31.942L22.3819 26.5508C22.6412 26.2916 22.8727 26.0092 23.0764 25.7036C23.2801 25.398 23.4514 25.074 23.5903 24.736C23.7315 24.3957 23.8357 24.0462 23.9074 23.6851C23.9792 23.324 24.0162 22.9605 24.0162 22.5925C24.0162 22.2244 23.9792 21.861 23.9074 21.4999C23.8357 21.1388 23.7315 20.7892 23.5903 20.449C23.4514 20.1087 23.2801 19.7869 23.0764 19.4814C22.8727 19.1758 22.6412 18.8934 22.3819 18.6318L9.51389 5.70591Z" fill="url(#paint1_linear_115_5913)"/>
</g>
<mask id="mask2_115_5913" style="mask-type:luminance" maskUnits="userSpaceOnUse" x="32" y="3" width="8" height="9">
<path d="M32.3588 3.83545H40V11.5345H32.3588V3.83545Z" fill="white"/>
</mask>
<g mask="url(#mask2_115_5913)">
<path d="M39.9999 7.53668C39.9999 7.77742 39.9768 8.01584 39.9305 8.24964C39.8842 8.48575 39.8147 8.71492 39.7222 8.93714C39.6319 9.15936 39.5184 9.37001 39.3865 9.56908C39.2522 9.77047 39.1018 9.95566 38.9328 10.1246C38.7638 10.2936 38.5786 10.4464 38.3819 10.5807C38.1828 10.7126 37.9722 10.826 37.7499 10.9186C37.53 11.0089 37.3032 11.0783 37.0671 11.127C36.8333 11.1732 36.5972 11.1964 36.3564 11.1964C36.118 11.1964 35.8819 11.1732 35.6458 11.127C35.412 11.0783 35.1828 11.0089 34.9629 10.9186C34.743 10.826 34.5323 10.7126 34.3333 10.5807C34.1342 10.4464 33.9513 10.2936 33.78 10.1246C33.611 9.95566 33.4606 9.77047 33.3286 9.56908C33.1944 9.37001 33.0833 9.15936 32.9907 8.93714C32.9004 8.71492 32.831 8.48575 32.7847 8.24964C32.7384 8.01584 32.7152 7.77742 32.7152 7.53668C32.7152 7.29593 32.7384 7.05751 32.7847 6.82371C32.831 6.5876 32.9004 6.35843 32.9907 6.13621C33.0833 5.91399 33.1944 5.70334 33.3286 5.50427C33.4606 5.30288 33.611 5.12001 33.78 4.94871C33.9513 4.77973 34.1342 4.62695 34.3333 4.49501C34.5323 4.36075 34.743 4.24732 34.9629 4.15705C35.1828 4.06445 35.412 3.99501 35.6458 3.94871C35.8819 3.9001 36.118 3.87695 36.3564 3.87695C36.5972 3.87695 36.8333 3.9001 37.0671 3.94871C37.3032 3.99501 37.53 4.06445 37.7499 4.15705C37.9722 4.24732 38.1828 4.36075 38.3819 4.49501C38.5786 4.62695 38.7638 4.77973 38.9328 4.94871C39.1018 5.12001 39.2522 5.30288 39.3865 5.50427C39.5184 5.70334 39.6319 5.91399 39.7222 6.13621C39.8147 6.35843 39.8842 6.5876 39.9305 6.82371C39.9768 7.05751 39.9999 7.29593 39.9999 7.53668Z" fill="url(#paint2_linear_115_5913)"/>
<path d="M39.9999 7.53668C39.9999 7.77742 39.9768 8.01584 39.9305 8.24964C39.8842 8.48575 39.8147 8.71492 39.7222 8.93714C39.6319 9.15936 39.5184 9.37001 39.3865 9.56908C39.2522 9.77047 39.1018 9.95566 38.9328 10.1246C38.7638 10.2936 38.5786 10.4464 38.3819 10.5807C38.1828 10.7126 37.9722 10.826 37.7499 10.9186C37.53 11.0089 37.3032 11.0783 37.0671 11.127C36.8333 11.1732 36.5972 11.1964 36.3564 11.1964C36.118 11.1964 35.8819 11.1732 35.6458 11.127C35.412 11.0783 35.1828 11.0089 34.9629 10.9186C34.743 10.826 34.5323 10.7126 34.3333 10.5807C34.1342 10.4464 33.9513 10.2936 33.78 10.1246C33.611 9.95566 33.4606 9.77047 33.3286 9.56908C33.1944 9.37001 33.0833 9.15936 32.9907 8.93714C32.9004 8.71492 32.831 8.48575 32.7847 8.24964C32.7384 8.01584 32.7152 7.77742 32.7152 7.53668C32.7152 7.29593 32.7384 7.05751 32.7847 6.82371C32.831 6.5876 32.9004 6.35843 32.9907 6.13621C33.0833 5.91399 33.1944 5.70334 33.3286 5.50427C33.4606 5.30288 33.611 5.12001 33.78 4.94871C33.9513 4.77973 34.1342 4.62695 34.3333 4.49501C34.5323 4.36075 34.743 4.24732 34.9629 4.15705C35.1828 4.06445 35.412 3.99501 35.6458 3.94871C35.8819 3.9001 36.118 3.87695 36.3564 3.87695C36.5972 3.87695 36.8333 3.9001 37.0671 3.94871C37.3032 3.99501 37.53 4.06445 37.7499 4.15705C37.9722 4.24732 38.1828 4.36075 38.3819 4.49501C38.5786 4.62695 38.7638 4.77973 38.9328 4.94871C39.1018 5.12001 39.2522 5.30288 39.3865 5.50427C39.5184 5.70334 39.6319 5.91399 39.7222 6.13621C39.8147 6.35843 39.8842 6.5876 39.9305 6.82371C39.9768 7.05751 39.9999 7.29593 39.9999 7.53668Z" fill="url(#paint3_linear_115_5913)"/>
</g>
<mask id="mask3_115_5913" style="mask-type:luminance" maskUnits="userSpaceOnUse" x="15" y="3" width="25" height="39">
<path d="M15.1736 3.83545H40V41.1642H15.1736V3.83545Z" fill="white"/>
</mask>
<g mask="url(#mask3_115_5913)">
<path d="M38.3658 18.6527L25.5093 5.73834C22.0579 2.26843 12.8565 6.29158 16.0047 9.45362L25.2523 18.7453C25.5093 19.0045 25.7408 19.287 25.9445 19.5925C26.1482 19.8981 26.3195 20.2221 26.4607 20.5601C26.5996 20.9004 26.706 21.2499 26.7778 21.611C26.8496 21.9721 26.8843 22.3356 26.8843 22.7036C26.8843 23.0694 26.8496 23.4351 26.7778 23.7939C26.706 24.155 26.5996 24.5045 26.4607 24.8448C26.3195 25.1851 26.1482 25.5069 25.9445 25.8124C25.7408 26.118 25.5093 26.4004 25.2523 26.6596L16.0116 35.9467C13.1945 38.7731 22.0903 42.942 25.5093 39.5092L38.3658 26.5948C38.625 26.3356 38.8588 26.0508 39.0625 25.7453C39.2685 25.4374 39.4422 25.1157 39.581 24.7731C39.7222 24.4328 39.8287 24.0832 39.9028 23.7198C39.9746 23.3587 40.0093 22.993 40.0093 22.6249C40.0093 22.2545 39.9746 21.8888 39.9028 21.5277C39.8287 21.1666 39.7222 20.8147 39.581 20.4745C39.4422 20.1319 39.2685 19.8101 39.0625 19.5022C38.8588 19.1967 38.625 18.9143 38.3658 18.6527Z" fill="url(#paint4_linear_115_5913)"/>
</g>
<mask id="mask4_115_5913" style="mask-type:luminance" maskUnits="userSpaceOnUse" x="15" y="3" width="25" height="30">
<path d="M15.1736 3.83545H40V32.2753H15.1736V3.83545Z" fill="white"/>
</mask>
<g mask="url(#mask4_115_5913)">
<path d="M38.3658 18.6527L25.5093 5.73834C22.0579 2.26843 12.8565 6.29158 16.0047 9.45362L25.2523 18.7453C25.6968 19.192 26.0579 19.7013 26.331 20.2731C26.6042 20.8448 26.7755 21.4444 26.8449 22.074C30.0324 25.8309 32.6806 29.4791 33.2315 31.7522L38.375 26.5856C38.6343 26.3263 38.8658 26.0416 39.0695 25.736C39.2732 25.4305 39.4445 25.1064 39.5857 24.7661C39.7269 24.4258 39.831 24.074 39.9028 23.7129C39.9746 23.3518 40.0093 22.986 40.0093 22.618C40.0093 22.2499 39.9722 21.8842 39.9005 21.5231C39.8287 21.1619 39.7222 20.8101 39.581 20.4698C39.4398 20.1295 39.2662 19.8078 39.0625 19.5022C38.8588 19.1967 38.625 18.9119 38.3658 18.6527Z" fill="url(#paint5_linear_115_5913)"/>
</g>
<path d="M61.192 37.432C59.272 37.432 57.496 37.084 55.864 36.388C54.256 35.692 52.84 34.72 51.616 33.472C50.416 32.224 49.48 30.76 48.808 29.08C48.136 27.4 47.8 25.564 47.8 23.572C47.8 21.58 48.124 19.744 48.772 18.064C49.444 16.36 50.38 14.896 51.58 13.672C52.804 12.424 54.232 11.464 55.864 10.792C57.496 10.096 59.272 9.748 61.192 9.748C63.112 9.748 64.828 10.072 66.34 10.72C67.876 11.368 69.172 12.232 70.228 13.312C71.284 14.368 72.04 15.532 72.496 16.804L68.104 18.856C67.6 17.512 66.748 16.408 65.548 15.544C64.348 14.656 62.896 14.212 61.192 14.212C59.512 14.212 58.024 14.608 56.728 15.4C55.456 16.192 54.46 17.284 53.74 18.676C53.044 20.068 52.696 21.7 52.696 23.572C52.696 25.444 53.044 27.088 53.74 28.504C54.46 29.896 55.456 30.988 56.728 31.78C58.024 32.572 59.512 32.968 61.192 32.968C62.896 32.968 64.348 32.536 65.548 31.672C66.748 30.784 67.6 29.668 68.104 28.324L72.496 30.376C72.04 31.648 71.284 32.824 70.228 33.904C69.172 34.96 67.876 35.812 66.34 36.46C64.828 37.108 63.112 37.432 61.192 37.432ZM85.2993 37.432C83.3793 37.432 81.6273 36.988 80.0433 36.1C78.4833 35.212 77.2353 34 76.2993 32.464C75.3873 30.928 74.9313 29.176 74.9313 27.208C74.9313 25.24 75.3873 23.488 76.2993 21.952C77.2353 20.416 78.4833 19.204 80.0433 18.316C81.6033 17.428 83.3553 16.984 85.2993 16.984C87.2193 16.984 88.9593 17.428 90.5193 18.316C92.0793 19.204 93.3153 20.416 94.2273 21.952C95.1633 23.464 95.6313 25.216 95.6313 27.208C95.6313 29.176 95.1633 30.928 94.2273 32.464C93.2913 34 92.0433 35.212 90.4833 36.1C88.9233 36.988 87.1953 37.432 85.2993 37.432ZM85.2993 33.112C86.3553 33.112 87.2793 32.86 88.0713 32.356C88.8873 31.852 89.5233 31.156 89.9793 30.268C90.4593 29.356 90.6993 28.336 90.6993 27.208C90.6993 26.056 90.4593 25.048 89.9793 24.184C89.5233 23.296 88.8873 22.6 88.0713 22.096C87.2793 21.568 86.3553 21.304 85.2993 21.304C84.2193 21.304 83.2713 21.568 82.4553 22.096C81.6393 22.6 80.9913 23.296 80.5113 24.184C80.0553 25.048 79.8273 26.056 79.8273 27.208C79.8273 28.336 80.0553 29.356 80.5113 30.268C80.9913 31.156 81.6393 31.852 82.4553 32.356C83.2713 32.86 84.2193 33.112 85.2993 33.112ZM99.2077 37V17.416H103.636V21.268L103.276 20.584C103.732 19.408 104.476 18.52 105.508 17.92C106.564 17.296 107.788 16.984 109.18 16.984C110.62 16.984 111.892 17.296 112.996 17.92C114.124 18.544 115 19.42 115.624 20.548C116.248 21.652 116.56 22.936 116.56 24.4V37H111.844V25.516C111.844 24.652 111.676 23.908 111.34 23.284C111.004 22.66 110.536 22.18 109.936 21.844C109.36 21.484 108.676 21.304 107.884 21.304C107.116 21.304 106.432 21.484 105.832 21.844C105.232 22.18 104.764 22.66 104.428 23.284C104.092 23.908 103.924 24.652 103.924 25.516V37H99.2077ZM129.98 37.432C128.036 37.432 126.284 36.988 124.724 36.1C123.188 35.188 121.976 33.964 121.088 32.428C120.2 30.868 119.756 29.116 119.756 27.172C119.756 25.228 120.2 23.488 121.088 21.952C121.976 20.416 123.188 19.204 124.724 18.316C126.284 17.428 128.036 16.984 129.98 16.984C131.372 16.984 132.668 17.236 133.868 17.74C135.068 18.22 136.1 18.892 136.964 19.756C137.852 20.596 138.488 21.604 138.872 22.78L134.732 24.58C134.372 23.596 133.76 22.804 132.896 22.204C132.056 21.604 131.084 21.304 129.98 21.304C128.948 21.304 128.024 21.556 127.208 22.06C126.416 22.564 125.792 23.26 125.336 24.148C124.88 25.036 124.652 26.056 124.652 27.208C124.652 28.36 124.88 29.38 125.336 30.268C125.792 31.156 126.416 31.852 127.208 32.356C128.024 32.86 128.948 33.112 129.98 33.112C131.108 33.112 132.092 32.812 132.932 32.212C133.772 31.612 134.372 30.808 134.732 29.8L138.872 31.672C138.488 32.776 137.864 33.772 137 34.66C136.136 35.524 135.104 36.208 133.904 36.712C132.704 37.192 131.396 37.432 129.98 37.432ZM151.738 37.432C149.722 37.432 147.958 36.976 146.446 36.064C144.934 35.152 143.758 33.916 142.918 32.356C142.078 30.796 141.658 29.068 141.658 27.172C141.658 25.204 142.078 23.464 142.918 21.952C143.782 20.416 144.946 19.204 146.41 18.316C147.898 17.428 149.554 16.984 151.378 16.984C152.914 16.984 154.258 17.236 155.41 17.74C156.586 18.244 157.582 18.94 158.398 19.828C159.214 20.716 159.838 21.736 160.27 22.888C160.702 24.016 160.918 25.24 160.918 26.56C160.918 26.896 160.894 27.244 160.846 27.604C160.822 27.964 160.762 28.276 160.666 28.54H145.546V24.94H158.002L155.77 26.632C155.986 25.528 155.926 24.544 155.59 23.68C155.278 22.816 154.75 22.132 154.006 21.628C153.286 21.124 152.41 20.872 151.378 20.872C150.394 20.872 149.518 21.124 148.75 21.628C147.982 22.108 147.394 22.828 146.986 23.788C146.602 24.724 146.458 25.864 146.554 27.208C146.458 28.408 146.614 29.476 147.022 30.412C147.454 31.324 148.078 32.032 148.894 32.536C149.734 33.04 150.694 33.292 151.774 33.292C152.854 33.292 153.766 33.064 154.51 32.608C155.278 32.152 155.878 31.54 156.31 30.772L160.126 32.644C159.742 33.58 159.142 34.408 158.326 35.128C157.51 35.848 156.538 36.412 155.41 36.82C154.306 37.228 153.082 37.432 151.738 37.432ZM164.493 37V17.416H168.921V21.772L168.561 21.124C169.017 19.66 169.725 18.64 170.685 18.064C171.669 17.488 172.845 17.2 174.213 17.2H175.365V21.376H173.673C172.329 21.376 171.249 21.796 170.433 22.636C169.617 23.452 169.209 24.604 169.209 26.092V37H164.493ZM187.413 37.216C185.205 37.216 183.489 36.616 182.265 35.416C181.065 34.192 180.465 32.476 180.465 30.268V21.628H177.081V17.416H177.441C178.401 17.416 179.145 17.164 179.673 16.66C180.201 16.156 180.465 15.424 180.465 14.464V12.952H185.181V17.416H189.681V21.628H185.181V30.016C185.181 30.664 185.289 31.216 185.505 31.672C185.745 32.128 186.105 32.476 186.585 32.716C187.089 32.956 187.725 33.076 188.493 33.076C188.661 33.076 188.853 33.064 189.069 33.04C189.309 33.016 189.537 32.992 189.753 32.968V37C189.417 37.048 189.033 37.096 188.601 37.144C188.169 37.192 187.773 37.216 187.413 37.216ZM193.356 37V17.416H198.072V37H193.356ZM193.356 15.22V10.18H198.072V15.22H193.356ZM204.694 37V21.628H201.238V17.416H204.694V16.768C204.694 15.28 204.994 14.02 205.594 12.988C206.218 11.932 207.082 11.128 208.186 10.576C209.29 10.024 210.598 9.748 212.11 9.748C212.398 9.748 212.71 9.772 213.046 9.82C213.406 9.844 213.706 9.88 213.946 9.928V13.996C213.706 13.948 213.478 13.924 213.262 13.924C213.07 13.9 212.89 13.888 212.722 13.888C211.666 13.888 210.85 14.128 210.274 14.608C209.698 15.064 209.41 15.784 209.41 16.768V17.416H213.766V21.628H209.41V37H204.694ZM219.427 44.956C218.899 44.956 218.383 44.908 217.879 44.812C217.375 44.74 216.919 44.608 216.511 44.416V40.456C216.823 40.528 217.195 40.6 217.627 40.672C218.083 40.744 218.503 40.78 218.887 40.78C219.967 40.78 220.747 40.528 221.227 40.024C221.731 39.52 222.175 38.86 222.559 38.044L223.855 35.02L223.783 38.98L215.251 17.416H220.327L226.303 33.328H224.503L230.443 17.416H235.555L227.023 38.98C226.519 40.252 225.907 41.332 225.187 42.22C224.467 43.108 223.627 43.78 222.667 44.236C221.731 44.716 220.651 44.956 219.427 44.956Z" fill="url(#paint6_linear_115_5913)"/>
<defs>
<linearGradient id="paint0_linear_115_5913" x1="0" y1="22.5808" x2="24.0046" y2="22.5808" gradientUnits="userSpaceOnUse">
<stop stop-color="#8E0BF5"/>
<stop offset="0.81577" stop-color="#5311BF"/>
<stop offset="1" stop-color="#412088"/>
</linearGradient>
<linearGradient id="paint1_linear_115_5913" x1="0.00231934" y1="17.9986" x2="24.0162" y2="17.9986" gradientUnits="userSpaceOnUse">
<stop stop-color="#8E0BF5"/>
<stop offset="0.81577" stop-color="#5311BF"/>
<stop offset="1" stop-color="#412088"/>
</linearGradient>
<linearGradient id="paint2_linear_115_5913" x1="32.7152" y1="7.53668" x2="39.9999" y2="7.53668" gradientUnits="userSpaceOnUse">
<stop stop-color="#8E0BF5"/>
<stop offset="0.81577" stop-color="#5311BF"/>
<stop offset="1" stop-color="#412088"/>
</linearGradient>
<linearGradient id="paint3_linear_115_5913" x1="32.7152" y1="7.53668" x2="39.9999" y2="7.53668" gradientUnits="userSpaceOnUse">
<stop stop-color="#8E0BF5"/>
<stop offset="0.81577" stop-color="#5311BF"/>
<stop offset="1" stop-color="#412088"/>
</linearGradient>
<linearGradient id="paint4_linear_115_5913" x1="15.3588" y1="22.6026" x2="40.0093" y2="22.6026" gradientUnits="userSpaceOnUse">
<stop stop-color="#8E0BF5"/>
<stop offset="0.81577" stop-color="#5311BF"/>
<stop offset="1" stop-color="#412088"/>
</linearGradient>
<linearGradient id="paint5_linear_115_5913" x1="15.3588" y1="18.077" x2="40.0093" y2="18.077" gradientUnits="userSpaceOnUse">
<stop stop-color="#8E0BF5"/>
<stop offset="0.81577" stop-color="#5311BF"/>
<stop offset="1" stop-color="#412088"/>
</linearGradient>
<linearGradient id="paint6_linear_115_5913" x1="46" y1="22.5" x2="242" y2="22.5" gradientUnits="userSpaceOnUse">
<stop stop-color="#8E0BF5"/>
<stop offset="0.81577" stop-color="#5311BF"/>
<stop offset="1" stop-color="#412088"/>
</linearGradient>
</defs>
</svg>
