<svg width="21" height="16" viewBox="0 0 21 16" fill="none" xmlns="http://www.w3.org/2000/svg">
<path d="M19.5 2.55556V13.4444C19.5 13.857 19.3541 14.2527 19.0945 14.5444C18.8348 14.8361 18.4826 15 18.1154 15H2.88462C2.51739 15 2.16521 14.8361 1.90554 14.5444C1.64588 14.2527 1.5 13.857 1.5 13.4444V2.55556M19.5 2.55556C19.5 2.143 19.3541 1.74733 19.0945 1.45561C18.8348 1.16389 18.4826 1 18.1154 1H2.88462C2.51739 1 2.16521 1.16389 1.90554 1.45561C1.64588 1.74733 1.5 2.143 1.5 2.55556M19.5 2.55556L11.2878 8.94267C11.0563 9.12263 10.7815 9.21903 10.5 9.21903C10.2185 9.21903 9.94366 9.12263 9.71215 8.94267L1.5 2.55556" stroke="#262626" stroke-width="1.5" strokeLinecap="round" strokeLinejoin="round"/>
</svg>
