<svg width="18" height="18" viewBox="0 0 18 18" fill="none" xmlns="http://www.w3.org/2000/svg">
<path d="M12.6435 16.506C9.86089 15.7928 7.3211 14.3448 5.28989 12.3136C3.25867 10.2824 1.81071 7.74262 1.09751 4.96C0.552515 2.819 2.39352 0.999999 4.60352 0.999999L5.60352 1C6.15552 1 6.59852 1.449 6.65352 1.998C6.74326 2.90852 6.95829 3.80229 7.29252 4.654L5.77252 6.174C6.95886 8.64892 8.9546 10.6447 11.4295 11.831L12.9495 10.311C13.8012 10.6456 14.6949 10.8609 15.6055 10.951C16.1555 11.005 16.6035 11.448 16.6035 12L16.6035 13C16.6035 15.21 14.7845 17.051 12.6435 16.506Z" stroke="#262626" stroke-width="1.5" strokeLinecap="round" strokeLinejoin="round"/>
</svg>
