<svg width="24" height="24" viewBox="0 0 24 24" fill="none" xmlns="http://www.w3.org/2000/svg">
<path d="M21.5003 11.1102L17.4762 14.755L18.6817 20.1816C18.7455 20.4653 18.7273 20.7622 18.6293 21.0352C18.5314 21.3082 18.3581 21.5452 18.1312 21.7166C17.9042 21.8879 17.6335 21.986 17.3531 21.9986C17.0727 22.0112 16.7949 21.9377 16.5545 21.7874L11.9942 18.9166L7.44368 21.7874C7.20328 21.9377 6.92551 22.0112 6.64509 21.9986C6.36467 21.986 6.09405 21.8879 5.86706 21.7166C5.64007 21.5452 5.46679 21.3082 5.36887 21.0352C5.27096 20.7622 5.25275 20.4653 5.31654 20.1816L6.5202 14.7606L2.49522 11.1102C2.28234 10.9196 2.1284 10.6681 2.05271 10.3871C1.97703 10.1061 1.98296 9.80814 2.06977 9.53063C2.15658 9.25312 2.3204 9.00839 2.54069 8.82713C2.76098 8.64586 3.02793 8.53614 3.30807 8.5117L8.61344 8.03479L10.6844 2.90826C10.7925 2.63926 10.9749 2.40948 11.2086 2.24786C11.4424 2.08624 11.7169 2 11.9978 2C12.2786 2 12.5532 2.08624 12.7869 2.24786C13.0206 2.40948 13.203 2.63926 13.3112 2.90826L15.3883 8.03479L20.6919 8.5117C20.9721 8.53614 21.239 8.64586 21.4593 8.82713C21.6796 9.00839 21.8434 9.25312 21.9302 9.53063C22.017 9.80814 22.023 10.1061 21.9473 10.3871C21.8716 10.6681 21.7177 10.9196 21.5048 11.1102H21.5003Z" fill="#262626"/>
</svg>
